<svg width="24" height="24" viewBox="0 0 24 24" fill="none" xmlns="http://www.w3.org/2000/svg">
<path d="M6 9.33333C6 8.59792 6.59792 8 7.33333 8H12.6667C13.4021 8 14 8.59792 14 9.33333V14.6667C14 15.4021 13.4021 16 12.6667 16H7.33333C6.59792 16 6 15.4021 6 14.6667V9.33333ZM17.6479 8.74583C17.8646 8.8625 18 9.0875 18 9.33333V14.6667C18 14.9125 17.8646 15.1375 17.6479 15.2542C17.4312 15.3708 17.1688 15.3583 16.9625 15.2208L14.9625 13.8875L14.6667 13.6896V13.3333V10.6667V10.3104L14.9625 10.1125L16.9625 8.77917C17.1667 8.64375 17.4292 8.62917 17.6479 8.74583Z" fill="white"/>
<circle cx="12" cy="12" r="11.5" stroke="white"/>
</svg>
