<svg width="196" height="70" viewBox="0 0 196 70" fill="none" xmlns="http://www.w3.org/2000/svg">
<path d="M11.6289 37.9141H13.9844V38.8047C13.9844 39.4375 14.125 39.9023 14.4062 40.1992C14.6875 40.4961 15.1484 40.6445 15.7891 40.6445H20.6289C21.2695 40.6445 21.7305 40.4961 22.0117 40.1992C22.293 39.9023 22.4336 39.4375 22.4336 38.8047V37.5039C22.4336 36.8633 22.293 36.3984 22.0117 36.1094C21.7305 35.8203 21.2695 35.6758 20.6289 35.6758H15.6602V33.332H20.5586C21.1445 33.3086 21.5625 33.1523 21.8125 32.8633C22.0703 32.5664 22.1992 32.1133 22.1992 31.5039V30.4023C22.1992 29.7617 22.0547 29.293 21.7656 28.9961C21.4844 28.6992 21.0273 28.5508 20.3945 28.5508H16.0234C15.3906 28.5508 14.9336 28.6992 14.6523 28.9961C14.3711 29.293 14.2305 29.7617 14.2305 30.4023V31.293H11.875V30.2852C11.875 27.5586 13.2344 26.1953 15.9531 26.1953H20.4648C21.8477 26.1953 22.8711 26.5312 23.5352 27.2031C24.207 27.875 24.543 28.9023 24.543 30.2852V30.5898C24.543 31.5352 24.375 32.3164 24.0391 32.9336C23.7109 33.543 23.2305 33.9961 22.5977 34.293C23.3086 34.5039 23.8516 34.9258 24.2266 35.5586C24.6016 36.1914 24.7891 37.0312 24.7891 38.0781V38.9219C24.7891 41.6406 23.4297 43 20.7109 43H15.7188C12.9922 43 11.6289 41.6406 11.6289 38.9219V37.9141ZM28.3867 28.5977C28.3867 28.2695 28.4492 27.9609 28.5742 27.6719C28.6992 27.375 28.8711 27.1211 29.0898 26.9102C29.3086 26.6914 29.5625 26.5195 29.8516 26.3945C30.1484 26.2617 30.4609 26.1953 30.7891 26.1953H38.4648C38.793 26.1953 39.1016 26.2617 39.3906 26.3945C39.6875 26.5195 39.9453 26.6914 40.1641 26.9102C40.3828 27.1211 40.5547 27.375 40.6797 27.6719C40.8047 27.9609 40.8672 28.2695 40.8672 28.5977V30.7656H38.4648V28.5977H30.7891V33.4023H38.4648C38.793 33.4023 39.1016 33.4648 39.3906 33.5898C39.6875 33.7148 39.9453 33.8867 40.1641 34.1055C40.3828 34.3242 40.5547 34.582 40.6797 34.8789C40.8047 35.168 40.8672 35.4766 40.8672 35.8047V40.5977C40.8672 40.9258 40.8047 41.2383 40.6797 41.5352C40.5547 41.8242 40.3828 42.0781 40.1641 42.2969C39.9453 42.5156 39.6875 42.6875 39.3906 42.8125C39.1016 42.9375 38.793 43 38.4648 43H30.7891C30.4609 43 30.1484 42.9375 29.8516 42.8125C29.5625 42.6875 29.3086 42.5156 29.0898 42.2969C28.8711 42.0781 28.6992 41.8242 28.5742 41.5352C28.4492 41.2383 28.3867 40.9258 28.3867 40.5977V28.5977ZM30.7891 35.8047V40.5977H38.4648V35.8047H30.7891ZM58.3984 40.5977C58.3984 40.9258 58.3359 41.2383 58.2109 41.5352C58.0859 41.8242 57.9141 42.0781 57.6953 42.2969C57.4766 42.5156 57.2188 42.6875 56.9219 42.8125C56.6328 42.9375 56.3242 43 55.9961 43H47.5938C47.2656 43 46.9531 42.9375 46.6562 42.8125C46.3672 42.6875 46.1133 42.5156 45.8945 42.2969C45.6758 42.0781 45.5039 41.8242 45.3789 41.5352C45.2539 41.2383 45.1914 40.9258 45.1914 40.5977V28.5977C45.1914 28.2695 45.2539 27.9609 45.3789 27.6719C45.5039 27.375 45.6758 27.1211 45.8945 26.9102C46.1133 26.6914 46.3672 26.5195 46.6562 26.3945C46.9531 26.2617 47.2656 26.1953 47.5938 26.1953H55.9961C56.3242 26.1953 56.6328 26.2617 56.9219 26.3945C57.2188 26.5195 57.4766 26.6914 57.6953 26.9102C57.9141 27.1211 58.0859 27.375 58.2109 27.6719C58.3359 27.9609 58.3984 28.2695 58.3984 28.5977V40.5977ZM47.5938 28.5977V40.5977H55.9961V28.5977H47.5938Z" fill="white"/>
<path d="M85.1953 43L78.7148 26.1953H81.293L86.5195 40.0234L91.7578 26.1953H94.3242L87.8438 43H85.1953ZM99.3867 30.5195V43H97.0781V30.5195H99.3867ZM96.9609 25.7148H99.5039V28.1172H96.9609V25.7148ZM110.895 40.6914V37.7969H105.422C105.102 37.7969 104.801 37.7383 104.52 37.6211C104.238 37.4961 103.992 37.332 103.781 37.1289C103.578 36.918 103.414 36.6719 103.289 36.3906C103.172 36.1094 103.113 35.8086 103.113 35.4883V32.8281C103.113 32.5078 103.172 32.207 103.289 31.9258C103.414 31.6445 103.578 31.4023 103.781 31.1992C103.992 30.9883 104.238 30.8242 104.52 30.707C104.801 30.582 105.102 30.5195 105.422 30.5195H112.723V32.8281H105.422V35.4883H110.895C111.215 35.4883 111.512 35.5508 111.785 35.6758C112.066 35.793 112.312 35.957 112.523 36.168C112.734 36.3711 112.898 36.6133 113.016 36.8945C113.141 37.1758 113.203 37.4766 113.203 37.7969V40.6914C113.203 41.0117 113.141 41.3125 113.016 41.5938C112.898 41.875 112.734 42.1211 112.523 42.332C112.312 42.5352 112.066 42.6992 111.785 42.8242C111.512 42.9414 111.215 43 110.895 43H103.113V40.6914H110.895ZM119.238 30.5195V43H116.93V30.5195H119.238ZM116.812 25.7148H119.355V28.1172H116.812V25.7148ZM134.004 40.6914C134.004 41.0117 133.941 41.3125 133.816 41.5938C133.699 41.875 133.535 42.1211 133.324 42.332C133.121 42.5352 132.879 42.6992 132.598 42.8242C132.324 42.9414 132.027 43 131.707 43H125.508C125.195 43 124.898 42.9414 124.617 42.8242C124.336 42.6992 124.09 42.5352 123.879 42.332C123.676 42.1211 123.512 41.875 123.387 41.5938C123.27 41.3125 123.211 41.0117 123.211 40.6914V32.8281C123.211 32.5078 123.27 32.207 123.387 31.9258C123.512 31.6445 123.676 31.4023 123.879 31.1992C124.09 30.9883 124.336 30.8242 124.617 30.707C124.898 30.582 125.195 30.5195 125.508 30.5195H131.707C132.027 30.5195 132.324 30.582 132.598 30.707C132.879 30.8242 133.121 30.9883 133.324 31.1992C133.535 31.4023 133.699 31.6445 133.816 31.9258C133.941 32.207 134.004 32.5078 134.004 32.8281V40.6914ZM125.508 32.8281V40.6914H131.707V32.8281H125.508ZM148.898 43H146.59V32.8281H140.156V43H137.859V30.5195H140.156V32.7227C140.172 32.418 140.242 32.1328 140.367 31.8672C140.492 31.5938 140.656 31.3594 140.859 31.1641C141.07 30.9609 141.312 30.8047 141.586 30.6953C141.859 30.5781 142.152 30.5195 142.465 30.5195H146.59C146.91 30.5195 147.211 30.582 147.492 30.707C147.773 30.8242 148.016 30.9883 148.219 31.1992C148.43 31.4023 148.594 31.6445 148.711 31.9258C148.836 32.207 148.898 32.5078 148.898 32.8281V43Z" fill="white"/>
<path d="M158.016 43L151.535 26.1953H154.113L159.34 40.0234L164.578 26.1953H167.145L160.664 43H158.016ZM179.613 40.6914C179.613 41.0117 179.551 41.3125 179.426 41.5938C179.309 41.875 179.145 42.1211 178.934 42.332C178.73 42.5352 178.488 42.6992 178.207 42.8242C177.934 42.9414 177.637 43 177.316 43H171.117C170.805 43 170.508 42.9414 170.227 42.8242C169.945 42.6992 169.699 42.5352 169.488 42.332C169.285 42.1211 169.121 41.875 168.996 41.5938C168.879 41.3125 168.82 41.0117 168.82 40.6914V32.8281C168.82 32.5078 168.879 32.207 168.996 31.9258C169.121 31.6445 169.285 31.4023 169.488 31.1992C169.699 30.9883 169.945 30.8242 170.227 30.707C170.508 30.582 170.805 30.5195 171.117 30.5195H177.316C177.637 30.5195 177.934 30.582 178.207 30.707C178.488 30.8242 178.73 30.9883 178.934 31.1992C179.145 31.4023 179.309 31.6445 179.426 31.9258C179.551 32.207 179.613 32.5078 179.613 32.8281V40.6914ZM171.117 32.8281V40.6914H177.316V32.8281H171.117ZM194.344 30.5195L189.809 36.6133L194.555 43H191.766L188.414 38.4883L185.051 43H182.262L187.02 36.6133L182.484 30.5195H185.262L188.414 34.7383L191.555 30.5195H194.344Z" fill="#FF0000"/>
<circle cx="35" cy="35" r="33.5" stroke="#FF0000" stroke-width="3"/>
</svg>
