<svg width="24" height="24" viewBox="0 0 24 24" fill="none" xmlns="http://www.w3.org/2000/svg">
<path d="M12 5C10.4943 5 9.27273 6.22159 9.27273 7.72727V12.2727C9.27273 13.7784 10.4943 15 12 15C13.5057 15 14.7273 13.7784 14.7273 12.2727V7.72727C14.7273 6.22159 13.5057 5 12 5ZM8.36364 11.1364C8.36364 10.7585 8.05966 10.4545 7.68182 10.4545C7.30398 10.4545 7 10.7585 7 11.1364V12.2727C7 14.804 8.88068 16.8949 11.3182 17.2273V18.1818H9.95455C9.5767 18.1818 9.27273 18.4858 9.27273 18.8636C9.27273 19.2415 9.5767 19.5455 9.95455 19.5455H12H14.0455C14.4233 19.5455 14.7273 19.2415 14.7273 18.8636C14.7273 18.4858 14.4233 18.1818 14.0455 18.1818H12.6818V17.2273C15.1193 16.8949 17 14.804 17 12.2727V11.1364C17 10.7585 16.696 10.4545 16.3182 10.4545C15.9403 10.4545 15.6364 10.7585 15.6364 11.1364V12.2727C15.6364 14.2813 14.0085 15.9091 12 15.9091C9.99148 15.9091 8.36364 14.2813 8.36364 12.2727V11.1364Z" fill="white"/>
<circle cx="12" cy="12" r="11.5" stroke="white"/>
</svg>
