<svg width="34" height="25" viewBox="0 0 34 25" fill="none" xmlns="http://www.w3.org/2000/svg">
<path d="M27.9711 0.335041C31.3732 3.09756 33.5486 7.32259 33.5486 12.0508C33.5486 16.7791 31.3732 20.9989 27.9711 23.7666C27.4312 24.207 26.6397 24.1231 26.1994 23.5832C25.759 23.0433 25.8429 22.2517 26.3828 21.8114C29.224 19.5049 31.0325 15.9928 31.0325 12.0508C31.0325 8.10888 29.224 4.59676 26.3828 2.28505C25.8429 1.84473 25.7643 1.05319 26.1994 0.513268C26.6344 -0.0266551 27.4312 -0.105285 27.9711 0.329799V0.335041ZM24.7998 4.24031C27.0643 6.08548 28.5163 8.90042 28.5163 12.0508C28.5163 15.2013 27.0643 18.0162 24.7998 19.8614C24.2598 20.3017 23.4683 20.2178 23.028 19.6779C22.5876 19.138 22.6715 18.3464 23.2114 17.9061C24.9151 16.5222 26.0002 14.415 26.0002 12.0508C26.0002 9.68671 24.9151 7.57944 23.2114 6.19032C22.6715 5.74999 22.5929 4.95846 23.028 4.41853C23.4631 3.87861 24.2598 3.79998 24.7998 4.23507V4.24031ZM21.6284 8.14557C22.7554 9.06816 23.484 10.473 23.484 12.0508C23.484 13.6287 22.7554 15.0335 21.6284 15.9561C21.0884 16.3964 20.2969 16.3126 19.8566 15.7726C19.4163 15.2327 19.5001 14.4412 20.04 14.0009C20.6062 13.5396 20.9679 12.8371 20.9679 12.0508C20.9679 11.2645 20.6062 10.5621 20.04 10.0956C19.5001 9.65526 19.4215 8.86372 19.8566 8.3238C20.2917 7.78388 21.0884 7.70525 21.6284 8.14033V8.14557ZM15.7836 0.455606C16.3864 0.728188 16.7743 1.32577 16.7743 1.98626V22.1154C16.7743 22.7759 16.3864 23.3735 15.7836 23.6461C15.1807 23.9187 14.4731 23.8086 13.9803 23.3683L6.90892 17.0831H3.35486C1.50445 17.0831 0 15.5787 0 13.7283V10.3734C0 8.523 1.50445 7.01855 3.35486 7.01855H6.90892L13.9803 0.73343C14.4731 0.293105 15.1807 0.188265 15.7836 0.455606Z" fill="white"/>
</svg>
