<svg width="31" height="24" viewBox="0 0 31 24" fill="none" xmlns="http://www.w3.org/2000/svg">
<path d="M16.1301 0.148973C16.7462 0.42754 17.1426 1.03825 17.1426 1.71324V22.2844C17.1426 22.9594 16.7462 23.5701 16.1301 23.8487C15.5141 24.1272 14.7909 24.0147 14.2873 23.5647L7.06062 17.1416H3.42853C1.53748 17.1416 0 15.6041 0 13.7131V10.2846C0 8.39351 1.53748 6.85603 3.42853 6.85603H7.06062L14.2873 0.432897C14.7909 -0.0170967 15.5141 -0.124238 16.1301 0.148973ZM22.7676 7.23102L25.7139 10.1774L28.6603 7.23102C29.1639 6.72746 29.9782 6.72746 30.4764 7.23102C30.9746 7.73459 30.98 8.54886 30.4764 9.04707L27.53 11.9935L30.4764 14.9399C30.98 15.4434 30.98 16.2577 30.4764 16.7559C29.9728 17.2541 29.1585 17.2595 28.6603 16.7559L25.7139 13.8095L22.7676 16.7559C22.264 17.2595 21.4497 17.2595 20.9515 16.7559C20.4533 16.2523 20.4479 15.4381 20.9515 14.9399L23.8979 11.9935L20.9515 9.04707C20.4479 8.54351 20.4479 7.72923 20.9515 7.23102C21.4551 6.73282 22.2694 6.72746 22.7676 7.23102Z" fill="white"/>
</svg>
